<svg width="398" height="124" viewBox="0 0 398 124" fill="none" xmlns="http://www.w3.org/2000/svg">
<path d="M391.522 64.206C384.36 53.6344 371.951 46.636 357.832 46.636C336.494 46.636 319.052 62.6031 317.75 82.7612C317.735 83.241 317.72 83.726 317.72 84.2109V86.5692C317.725 86.9214 317.74 87.2736 317.75 87.6259C319.062 107.779 336.499 123.731 357.832 123.731C380.016 123.731 398 106.472 398 85.1807C398 77.4473 395.616 70.2447 391.522 64.206ZM357.832 113.164C341.686 113.164 328.593 100.602 328.593 85.1042C328.593 69.6066 341.681 57.0442 357.832 57.0442C373.983 57.0442 387.071 69.6066 387.071 85.1042C387.071 100.602 373.983 113.164 357.832 113.164Z" fill="#FFF"/>
<path d="M244.148 46.6359H233.862V93.1132V94.8947C233.857 104.69 225.884 112.659 216.088 112.659C216.083 112.659 216.078 112.659 216.078 112.659C211.336 112.654 206.879 110.801 203.521 107.442C200.162 104.078 198.314 99.6164 198.314 94.8793V93.5828H198.319V81.0919V79.5656V46.6409H188.033V93.1387V94.8743C188.028 102.358 190.948 109.402 196.246 114.706C201.545 120.009 208.589 122.939 216.068 122.944C216.073 122.944 216.078 122.944 216.083 122.944C223.556 122.944 230.595 120.03 235.899 114.731C241.208 109.427 244.133 102.388 244.138 94.9049V94.3332H244.143V82.6794V79.5707V46.6359H244.148Z" fill="#FFF"/>
<path d="M157.162 8.21329C151.858 2.91472 144.819 0 137.346 0C137.341 0 137.336 0 137.331 0C129.847 0.00510459 122.808 2.93003 117.51 8.2388C112.206 13.5476 109.291 20.5919 109.296 28.0701L109.307 43.3737V122.985H119.592V56.8141H140.016V46.5284H119.592V39.8005H119.582L119.577 28.065C119.572 23.328 121.425 18.8615 124.784 15.5026C128.143 12.1387 132.604 10.2858 137.341 10.2858C137.346 10.2858 137.346 10.2858 137.351 10.2858C143.523 10.2858 148.959 13.4506 152.144 18.2387L159.51 10.8728C158.78 9.94374 158.004 9.05554 157.162 8.21329Z" fill="#FFF"/>
<path d="M296.885 84.5933C298.503 83.5468 300.029 82.3217 301.428 80.9282C306.619 75.7419 309.483 68.8507 309.488 61.5307L309.498 46.5232H307.671H305.843H305.721H305.032H303.893H303.204H303.082H301.254H299.427L299.417 61.5256C299.411 71.112 291.612 78.9067 282.025 78.9067C282.02 78.9067 282.015 78.9067 282.015 78.9067C277.375 78.9016 273.016 77.0895 269.728 73.8021C266.441 70.5097 264.634 66.1452 264.634 61.5103L264.644 46.5283H262.817H260.989H260.872H260.183H259.044H258.355H258.238H256.41H254.583L254.573 61.5052C254.568 68.8251 257.421 75.7164 262.612 80.9128C264.139 82.4442 265.818 83.7612 267.61 84.874C265.992 85.9204 264.465 87.1455 263.067 88.5391C257.875 93.7254 255.012 100.617 255.007 107.937L254.996 122.944H256.824H258.651H258.774H259.463H260.601H261.29H261.413H263.24H265.068L265.078 107.942C265.083 98.3552 272.883 90.5605 282.469 90.5605C282.474 90.5605 282.48 90.5605 282.48 90.5605C287.12 90.5656 291.479 92.3778 294.766 95.6651C298.054 98.9576 299.861 103.322 299.861 107.957L299.851 122.939H301.678H303.505H303.623H304.312H305.45H306.139H306.257H308.084H309.912L309.922 107.962C309.927 100.642 307.073 93.7509 301.882 88.5544C300.351 87.0281 298.676 85.7061 296.885 84.5933Z" fill="#FFF"/>
<path d="M13.7314 52.6838C21.315 52.6838 27.4627 46.536 27.4627 38.9524C27.4627 31.3688 21.315 25.2211 13.7314 25.2211C6.14774 25.2211 0 31.3688 0 38.9524C0 46.536 6.14774 52.6838 13.7314 52.6838Z" fill="#24B7C4"/>
<path d="M18.5959 94.8732V93.3214H18.6061V62.2089H8.32032V90.7793V94.863C8.31011 109.079 18.9379 120.861 32.6845 122.683V112.27C24.6397 110.565 18.5908 103.413 18.5959 94.8732Z" fill="#FFF"/>
<path d="M165.412 95.6756V94.8742V93.7869H165.407V94.5475C165.407 94.5424 165.407 94.5321 165.407 94.527V92.914H165.412V93.7869V62.6795V60.6377V37.473H155.126V93.2968V89.2132V90.2851V94.522C155.121 103.583 159.133 111.689 165.412 117.033C169.352 120.264 174.187 122.454 179.49 123.159V112.745C171.553 111.056 165.56 104.062 165.412 95.6756Z" fill="#FFF"/>
<path d="M43.7021 122.837H53.9879V76.3593V74.5778C53.993 64.7821 61.9664 56.8138 71.7621 56.8138C71.7672 56.8138 71.7723 56.8138 71.7723 56.8138C76.5145 56.8189 80.9708 58.6719 84.3296 62.0307C87.6884 65.3946 89.5363 69.8561 89.5363 74.5931V75.8897H89.5312V88.3806V89.9069V122.832H99.8169V76.3338V74.5982C99.822 67.1149 96.9022 60.0706 91.6036 54.7669C86.3051 49.4632 79.2607 46.5332 71.7825 46.5281C71.7774 46.5281 71.7723 46.5281 71.7672 46.5281C64.2941 46.5281 57.2548 49.4428 51.9512 54.7413C46.6424 60.045 43.7175 67.0843 43.7124 74.5676V75.1393H43.7073V86.7931V89.9018V122.837H43.7021Z" fill="#FFF"/>
</svg>
