<?xml version="1.0" encoding="utf-8"?>
<!-- Generator: Adobe Illustrator 24.1.2, SVG Export Plug-In . SVG Version: 6.00 Build 0)  -->
<svg version="1.1" id="Layer_1" xmlns="http://www.w3.org/2000/svg" xmlns:xlink="http://www.w3.org/1999/xlink" x="0px" y="0px"
	 viewBox="0 0 1133.86 1133.86" style="enable-background:new 0 0 1133.86 1133.86;" xml:space="preserve">
<style type="text/css">
	.st0{fill:url(#SVGID_1_);stroke:#000000;stroke-miterlimit:10;}
	.st1{fill:none;}
	.st2{fill:#FFFFFF;}
	.st3{fill:url(#SVGID_2_);}
</style>
<linearGradient id="SVGID_1_" gradientUnits="userSpaceOnUse" x1="-47.1873" y1="567.602" x2="1194.4794" y2="567.602">
	<stop  offset="0.0368" style="stop-color:#1D2B70"/>
	<stop  offset="0.2279" style="stop-color:#1E2C70"/>
	<stop  offset="0.3631" style="stop-color:#213072"/>
	<stop  offset="0.4811" style="stop-color:#243876"/>
	<stop  offset="0.5893" style="stop-color:#29427C"/>
	<stop  offset="0.6907" style="stop-color:#305082"/>
	<stop  offset="0.7872" style="stop-color:#3B618B"/>
	<stop  offset="0.8797" style="stop-color:#4A7493"/>
	<stop  offset="0.9669" style="stop-color:#5C879A"/>
	<stop  offset="1" style="stop-color:#638F9C"/>
</linearGradient>
<rect x="-47.19" y="-77.01" class="st0" width="1241.67" height="1289.21"/>
<polygon class="st1" points="943.86,651.18 943.86,651.18 943.86,651.18 "/>
<polygon class="st1" points="943.88,574.92 943.88,574.92 943.88,574.92 "/>
<polygon class="st1" points="941.8,574.92 941.8,575 941.8,575 "/>
<path class="st1" d="M807.83,611.32c0-0.88,0.02-1.75,0.05-2.63c-0.09,1.46-0.16,2.92-0.16,4.4c0,1.49,0.07,2.97,0.16,4.43
	c-0.02-0.64-0.05-1.28-0.06-1.92L807.83,611.32z"/>
<polygon class="st1" points="819.66,647.73 819.66,647.73 819.66,651.18 "/>
<polygon class="st1" points="941.8,647.68 941.8,647.69 941.8,647.68 "/>
<rect x="941.8" y="575" class="st1" width="0" height="3.37"/>
<g>
	<g>
		<polygon class="st1" points="840.48,649.99 840.48,649.99 840.48,653.72 		"/>
		<polygon class="st1" points="972.29,575.15 972.29,571.51 972.29,575.15 		"/>
		<polygon class="st1" points="972.29,649.95 972.29,649.94 972.29,649.94 		"/>
		<path class="st2" d="M972.29,571.51l0,3.64v0L972.29,571.51c-14.03-20.71-38.34-34.42-66-34.42c-41.8,0-75.97,31.28-78.52,70.77
			c-0.03,0.94-0.06,1.89-0.06,2.84l0,4.62c0.01,0.69,0.04,1.38,0.06,2.07c2.57,39.48,36.73,70.73,78.52,70.73
			c43.46,0,78.69-33.81,78.69-75.52C984.98,597.45,980.31,583.34,972.29,571.51z M840.48,649.99l0,3.72L840.48,649.99L840.48,649.99
			z M906.29,667.42c-31.63,0-57.28-24.61-57.28-54.97s25.64-54.97,57.28-54.97s57.28,24.61,57.28,54.97S937.93,667.42,906.29,667.42
			z M972.29,649.95C972.29,649.95,972.29,649.94,972.29,649.95L972.29,649.95C972.29,649.95,972.29,649.95,972.29,649.95z"/>
	</g>
	<path class="st2" d="M683.58,537.09h-20.15v91.05l0,3.49c-0.01,19.19-15.63,34.8-34.82,34.8c-0.01,0-0.02,0-0.02,0
		c-9.29-0.01-18.02-3.64-24.6-10.22c-6.58-6.59-10.2-15.33-10.2-24.61l0-2.54h0.01v-24.47l0-2.99h0v-64.5h-20.15v91.09l0,3.4
		c-0.01,14.66,5.71,28.46,16.09,38.85s24.18,16.13,38.83,16.14c0.01,0,0.02,0,0.03,0c14.64,0,28.43-5.71,38.82-16.09
		c10.4-10.39,16.13-24.18,16.14-38.84l0-1.12h0.01v-22.83l0-6.09h0V537.09z"/>
	<g>
		<g>
			<path class="st2" d="M513.17,461.82c-10.39-10.38-24.18-16.09-38.82-16.09c-0.01,0-0.02,0-0.03,0
				c-14.66,0.01-28.45,5.74-38.83,16.14c-10.39,10.4-16.1,24.2-16.09,38.85l0.02,29.98h0v155.96h20.15V557.03h40.01v-20.15h-40.01
				V523.7h-0.02l-0.01-22.99c-0.01-9.28,3.62-18.03,10.2-24.61c6.58-6.59,15.32-10.22,24.6-10.22c0.01,0,0.01,0,0.02,0
				c12.09,0,22.74,6.2,28.98,15.58l14.43-14.43C516.34,465.21,514.82,463.47,513.17,461.82z"/>
		</g>
	</g>
	<path class="st2" d="M786.89,611.45c3.17-2.05,6.16-4.45,8.9-7.18c10.17-10.16,15.78-23.66,15.79-38l0.02-29.4h-3.58h-3.58h-0.24
		h-1.35h-2.23h-1.35h-0.24h-3.58h-3.58l-0.02,29.39c-0.01,18.78-15.29,34.05-34.07,34.05c-0.01,0-0.02,0-0.02,0
		c-9.09-0.01-17.63-3.56-24.07-10c-6.44-6.45-9.98-15-9.98-24.08l0.02-29.35h-3.58h-3.58h-0.23h-1.35h-2.23h-1.35h-0.23h-3.58h-3.58
		l-0.02,29.34c-0.01,14.34,5.58,27.84,15.75,38.02c2.99,3,6.28,5.58,9.79,7.76c-3.17,2.05-6.16,4.45-8.9,7.18
		c-10.17,10.16-15.78,23.66-15.79,38l-0.02,29.4h3.58h3.58h0.24h1.35h2.23h1.35h0.24h3.58h3.58l0.02-29.39
		c0.01-18.78,15.29-34.05,34.07-34.05c0.01,0,0.02,0,0.02,0c9.09,0.01,17.63,3.56,24.07,10c6.44,6.45,9.98,15,9.98,24.08
		l-0.02,29.35h3.58h3.58h0.23h1.35h2.23h1.35h0.23h3.58h3.58l0.02-29.34c0.01-14.34-5.58-27.84-15.75-38.02
		C793.68,616.22,790.4,613.63,786.89,611.45z"/>
	
		<linearGradient id="SVGID_2_" gradientUnits="userSpaceOnUse" x1="-139.9313" y1="1114.519" x2="-86.1291" y2="1114.519" gradientTransform="matrix(0.0217 0.9998 -0.9998 0.0217 1348.9012 610.8702)">
		<stop  offset="0" style="stop-color:#24B7C4"/>
		<stop  offset="0.3017" style="stop-color:#26B8C5"/>
		<stop  offset="0.4224" style="stop-color:#2DBAC6"/>
		<stop  offset="0.5107" style="stop-color:#39BECA"/>
		<stop  offset="0.5833" style="stop-color:#4BC4CE"/>
		<stop  offset="0.6461" style="stop-color:#61CBD5"/>
		<stop  offset="0.7023" style="stop-color:#7DD4DC"/>
		<stop  offset="0.7535" style="stop-color:#9FDFE5"/>
		<stop  offset="0.8008" style="stop-color:#C5ECEF"/>
		<stop  offset="0.8432" style="stop-color:#F0FAFB"/>
		<stop  offset="0.857" style="stop-color:#FFFFFF"/>
	</linearGradient>
	<circle class="st3" cx="232.19" cy="522.04" r="26.9"/>
	<g>
		<path class="st2" d="M241.71,631.59l0-3.04h0.02V567.6h-20.15v55.97l0,8c-0.02,27.85,20.8,50.93,47.73,54.5v-20.4
			C253.55,662.33,241.7,648.32,241.71,631.59z"/>
	</g>
	<path class="st2" d="M529.33,633.16v-1.57v-2.13h-0.01l0,1.49c0-0.01,0-0.03,0-0.04l0-3.16h0.01v1.71h0v-60.94h0v-4v-45.38h-20.15
		v109.36l0-8v2.1l0,8.3c-0.01,17.75,7.85,33.63,20.15,44.1c7.72,6.33,17.19,10.62,27.58,12v-20.4
		C541.36,663.29,529.62,649.59,529.33,633.16z"/>
	<path class="st2" d="M290.9,686.37h20.15v-91.05l0-3.49c0.01-19.19,15.63-34.8,34.82-34.8c0.01,0,0.02,0,0.02,0
		c9.29,0.01,18.02,3.64,24.6,10.22c6.58,6.59,10.2,15.33,10.2,24.61l0,2.54h-0.01v24.47l0,2.99h0v64.5h20.15v-91.09l0-3.4
		c0.01-14.66-5.71-28.46-16.09-38.85s-24.18-16.13-38.83-16.14c-0.01,0-0.02,0-0.03,0c-14.64,0-28.43,5.71-38.82,16.09
		c-10.4,10.39-16.13,24.18-16.14,38.84l0,1.12h-0.01v22.83l0,6.09h0V686.37z"/>
</g>
</svg>
