<svg width="76" height="76" viewBox="0 0 76 76" fill="none" xmlns="http://www.w3.org/2000/svg">
<rect width="76" height="76" rx="10" fill="#F0F5FF"/>
<path opacity="0.2" d="M24.6558 30.493C24.5538 30.6661 24.5 30.8633 24.5 31.0642V44.9358C24.5 45.1354 24.5531 45.3315 24.6539 45.5038C24.7547 45.6761 24.8995 45.8185 25.0735 45.9163L37.4485 52.8773C37.6168 52.972 37.8068 53.0218 38 53.0218L38.0015 53.0218L38.1335 38L24.6558 30.4931L24.6558 30.493Z" fill="#0B63E5"/>
<path d="M51.5 44.9358V31.0642C51.5 30.8646 51.4469 30.6686 51.3461 30.4963C51.2453 30.3239 51.1005 30.1816 50.9265 30.0837L38.5515 23.1227C38.3832 23.028 38.1932 22.9783 38 22.9783C37.8068 22.9783 37.6168 23.028 37.4485 23.1227L25.0735 30.0837C24.8995 30.1816 24.7547 30.3239 24.6539 30.4963C24.5531 30.6686 24.5 30.8646 24.5 31.0642V44.9358C24.5 45.1354 24.5531 45.3314 24.6539 45.5038C24.7547 45.6761 24.8995 45.8185 25.0735 45.9163L37.4485 52.8773C37.6168 52.972 37.8068 53.0217 38 53.0217C38.1932 53.0217 38.3832 52.972 38.5515 52.8773L50.9265 45.9163C51.1005 45.8185 51.2453 45.6761 51.3461 45.5038C51.4469 45.3314 51.5 45.1354 51.5 44.9358Z" stroke="#0B63E5" stroke-width="2" stroke-linecap="round" stroke-linejoin="round"/>
<path d="M44.8937 41.4469V34.1344L31.25 26.6094" stroke="#0B63E5" stroke-width="2" stroke-linecap="round" stroke-linejoin="round"/>
<path d="M51.3448 30.4944L38.1334 38L24.6558 30.493" stroke="#0B63E5" stroke-width="2" stroke-linecap="round" stroke-linejoin="round"/>
<path d="M38.1335 38L38.0015 53.0217" stroke="#0B63E5" stroke-width="2" stroke-linecap="round" stroke-linejoin="round"/>
</svg>
