<svg width="76" height="76" viewBox="0 0 76 76" fill="none" xmlns="http://www.w3.org/2000/svg">
<rect width="76" height="76" rx="10" fill="#F0F5FF"/>
<path opacity="0.2" d="M49.727 37.9204L45.8758 30.1255H30.1258L26.2746 37.9204C26.1832 38.1054 26.1444 38.3119 26.1625 38.5175C26.1806 38.723 26.2549 38.9196 26.3772 39.0857L38.0008 54.8755L49.6244 39.0857C49.7467 38.9195 49.821 38.7229 49.8391 38.5174C49.8572 38.3119 49.8184 38.1053 49.727 37.9204ZM38.0008 41.3755C37.4446 41.3755 36.9008 41.2105 36.4383 40.9015C35.9758 40.5925 35.6153 40.1532 35.4024 39.6393C35.1895 39.1254 35.1338 38.5599 35.2424 38.0143C35.3509 37.4687 35.6188 36.9676 36.0121 36.5743C36.4054 36.1809 36.9066 35.9131 37.4521 35.8045C37.9977 35.696 38.5632 35.7517 39.0771 35.9646C39.591 36.1774 40.0303 36.5379 40.3393 37.0004C40.6484 37.463 40.8133 38.0067 40.8133 38.563C40.8133 38.9323 40.7406 39.2981 40.5992 39.6393C40.4579 39.9805 40.2507 40.2906 39.9896 40.5517C39.7284 40.8129 39.4184 41.0201 39.0771 41.1614C38.7359 41.3027 38.3702 41.3755 38.0008 41.3755Z" fill="#0B63E5"/>
<path d="M38.001 41.3755L38.001 54.8755" stroke="#0B63E5" stroke-width="2.5" stroke-linecap="round" stroke-linejoin="round"/>
<path d="M38.001 41.3755C39.5543 41.3755 40.8135 40.1163 40.8135 38.563C40.8135 37.0097 39.5543 35.7505 38.001 35.7505C36.4477 35.7505 35.1885 37.0097 35.1885 38.563C35.1885 40.1163 36.4477 41.3755 38.001 41.3755Z" stroke="#0B63E5" stroke-width="2.5" stroke-linecap="round" stroke-linejoin="round"/>
<path d="M30.126 30.1255V24.5005C30.126 24.2021 30.2445 23.916 30.4555 23.705C30.6665 23.494 30.9526 23.3755 31.251 23.3755H44.751C45.0493 23.3755 45.3355 23.494 45.5465 23.705C45.7575 23.916 45.876 24.2021 45.876 24.5005V30.1255" stroke="#0B63E5" stroke-width="2.5" stroke-linecap="round" stroke-linejoin="round"/>
<path d="M30.1258 30.1255L26.2746 37.9204C26.1832 38.1054 26.1444 38.3119 26.1625 38.5175C26.1806 38.723 26.2549 38.9196 26.3772 39.0857L38.0008 54.8755L49.6244 39.0856C49.7467 38.9195 49.821 38.7229 49.8391 38.5174C49.8572 38.3119 49.8184 38.1054 49.727 37.9204L45.8758 30.1255H30.1258Z" stroke="#0B63E5" stroke-width="2.5" stroke-linecap="round" stroke-linejoin="round"/>
</svg>
